<?xml version="1.0" encoding="utf-8"?>
<!-- Generator: Adobe Illustrator 14.0.0, SVG Export Plug-In . SVG Version: 6.00 Build 43363)  -->
<!DOCTYPE svg PUBLIC "-//W3C//DTD SVG 1.1//EN" "http://www.w3.org/Graphics/SVG/1.1/DTD/svg11.dtd">
<svg version="1.1" id="Layer_1" xmlns="http://www.w3.org/2000/svg" xmlns:xlink="http://www.w3.org/1999/xlink" x="0px" y="0px"
	 width="245.76px" height="245.76px" viewBox="0 0 245.76 245.76" enable-background="new 0 0 245.76 245.76" xml:space="preserve">
<path fill-rule="evenodd" clip-rule="evenodd" fill="#FFFFFF" d="M41.04,97.44H31.7l-3.22-3.22V51.903l3.184-3.184H114l3.12,3.12
	V94.2L114,97.32h-9.44v92.52l4.76,4.08h28.08l4.68-4.08v-92.4h-9.36l-3.24-3.24V51.903l3.184-3.184h82.286l3.09,3.09V94.2
	l-3.09,3.09h-9.27v113.67l-35.28,31.68H76.32l-35.28-31.68V97.44z"/>
<path fill="#FFFFFF" d="M21.717,14.798c0.759-0.16,1.599-0.459,2.52-0.9c0.24,0.84,1.55,2.69,3.93,5.55
	c2.379,2.86,4.597,5.07,6.65,6.63c0.096,0.801,0.176,2.01,0.241,3.63c0.063,1.62,0.12,3.41,0.168,5.37
	c0.048,1.96,0.072,3.161,0.072,3.6c-1.061,0-1.992,0.243-2.795,0.727c-0.257,0.322-0.385,1.21-0.385,2.664
	c0,1.614,0.072,2.624,0.218,3.027c0.144,0.242,0.379,0.405,0.706,0.49c0.327,0.084,0.842,0.138,1.549,0.162
	c0.707,0.023,1.35,0.041,1.93,0.053c0.579,0.011,1.521,0.018,2.826,0.018c4.458,0,6.828-0.1,7.109-0.3
	c0.12-0.282,0.28-0.948,0.481-1.997c0.201-1.049,0.302-1.958,0.302-2.725c0-0.686-0.081-1.11-0.24-1.271
	c-1.041-0.564-2.061-0.848-3.06-0.848c0.08-0.6,0.169-2.619,0.27-6.06c0.099-3.439,0.249-5.619,0.45-6.54
	c1.2-0.799,2.319-1.64,3.36-2.52c1.04-0.879,1.97-1.809,2.79-2.79c0.819-0.979,1.47-1.79,1.95-2.43c0.48-0.64,1.05-1.479,1.71-2.52
	c0.66-1.04,1.07-1.68,1.23-1.92c0.92,0.44,1.76,0.74,2.52,0.9c0.64-0.76,1.2-2.481,1.68-5.164c-3.801-3.997-8.021-5.996-12.66-5.996
	c-0.16,0.124-0.58,0.928-1.26,2.411c-0.681,1.483-1.041,2.39-1.08,2.72c0.039,0.207,0.54,0.537,1.5,0.989
	c0.759,0.36,1.38,0.54,1.86,0.54c-0.28,0.88-1.484,2.77-3.61,5.67c-2.126,2.9-3.693,4.65-4.698,5.25
	c-1.519-1.64-3.294-3.68-5.327-6.12c-2.032-2.439-3.167-4.04-3.408-4.8c0.52,0,1.14-0.18,1.86-0.54c0.999-0.494,1.5-0.845,1.5-1.051
	c0-0.865-0.626-2.555-1.879-5.069c-3.081,0.495-5.79,1.36-8.13,2.597c-2.34,1.237-3.851,2.37-4.53,3.399
	C20.356,11.516,20.916,13.237,21.717,14.798L21.717,14.798z"/>
<path fill="#FFFFFF" d="M50.72,37.483c0.361,1.458,0.973,2.888,1.835,4.285c0.863,1.399,2.157,2.513,3.883,3.343
	s3.793,1.246,6.202,1.246c4.507,0,8.167-1.449,10.979-4.347c2.813-2.899,4.219-7.126,4.219-12.682c0-1.953-0.19-3.737-0.569-5.352
	c-0.378-1.614-0.998-3.109-1.855-4.485c-0.859-1.375-2.076-2.452-3.653-3.229c-1.577-0.777-3.442-1.167-5.597-1.167
	c-4.728,0-8.574,1.719-11.539,5.157c-2.965,3.438-4.448,7.621-4.448,12.548C50.178,34.464,50.358,36.024,50.72,37.483z
	 M60.938,26.295c1.414-1.865,3.115-2.798,5.106-2.798c1.632,0,2.986,0.658,4.062,1.974c1.074,1.315,1.612,2.856,1.612,4.623
	c0,1.179-0.2,2.445-0.597,3.8c-0.398,1.355-1.135,2.631-2.21,3.828c-1.075,1.198-2.349,1.796-3.822,1.796
	c-1.712,0-3.186-0.706-4.419-2.12c-1.235-1.414-1.852-3.102-1.852-5.065C58.818,30.173,59.524,28.161,60.938,26.295z"/>
<path fill="#FFFFFF" d="M80.122,25.958c1.149,0.198,1.994,0.296,2.534,0.296c0.308,0,0.481-0.02,0.521-0.059
	c-0.24,1.819-0.36,3.676-0.36,5.574c0,9.727,3.554,14.589,10.662,14.589c4.344,0,8.391-2.16,12.138-6.48c-0.201,1.2-0.3,2.4-0.3,3.6
	c0,0.96,0.354,1.581,1.065,1.86c0.71,0.28,2.128,0.42,4.254,0.42c3.379,0,5.673-0.36,6.881-1.08
	c0.285-0.362,0.591-1.357,0.917-2.987s0.489-2.988,0.489-4.074c0-0.715-0.082-1.158-0.245-1.327c-0.163,0-0.408-0.042-0.734-0.126
	c-0.326-0.084-0.57-0.126-0.733-0.126c-0.205,0-0.897,0.051-2.079,0.15c-1.181,0.1-1.854,0.15-2.017,0.15
	c0-1.307-0.041-3.237-0.12-5.792c-0.081-2.554-0.12-4.405-0.12-5.554c0.404,0.084,0.892,0.125,1.463,0.125
	c0.978,0,2.2-0.183,3.667-0.548c1.1-0.608,1.65-2.171,1.65-4.689c0-1.177-0.183-2.002-0.548-2.474
	c-0.975-1.138-3.208-1.708-6.701-1.708c-4.516,0-8.199,0.665-11.051,1.992c-0.4,2.961-0.6,4.625-0.6,4.989
	c0,1.623,0.2,2.434,0.6,2.434c0.159,0.203,0.6,0.305,1.32,0.305c0.759,0,1.38-0.142,1.86-0.426c0.12,1.786,0.18,3.234,0.18,4.345
	c0,3.134-0.749,5.435-2.245,6.901s-3.142,2.2-4.937,2.2c-2.068,0-3.789-0.954-5.161-2.86c-1.373-1.907-2.058-4.126-2.058-6.656
	c0-0.236,0.008-0.81,0.027-1.719c0.019-0.909,0.028-1.425,0.028-1.545c0.478,0.201,0.975,0.3,1.491,0.3c0.662,0,1.195-0.14,1.6-0.42
	c0.662-0.973,0.994-2.128,0.994-3.467c0-0.893-0.121-1.957-0.361-3.194c-0.241-1.237-0.467-1.957-0.677-2.159
	c-2.078-0.64-3.91-0.96-5.498-0.96c-2.17,0-4.734,0.36-7.693,1.08c-0.395,0.648-0.591,2.373-0.591,5.172
	C79.638,24.237,79.799,25.553,80.122,25.958L80.122,25.958z"/>
<path fill="#FFFFFF" d="M148.168,13.25c0.12,0.603,0.96,0.904,2.52,0.904c0.639,0,1.179-0.06,1.62-0.18
	c-0.451,3.48-0.676,7.281-0.676,11.4c0,4.641,0.188,8.36,0.563,11.16c-0.635-0.08-1.202-0.12-1.7-0.12
	c-1.77,0-2.723,0.299-2.858,0.897c-0.137,0.399-0.204,1.256-0.204,2.573c0,2.343,0.2,3.712,0.6,4.109
	c4.28,1.668,8.762,2.501,13.442,2.501c7.94,0,13.754-1.654,17.443-4.965c3.689-3.31,5.534-8.274,5.534-14.895
	c0-3.368-0.461-6.406-1.382-9.113c-0.921-2.708-2.333-5.104-4.235-7.19c-1.902-2.085-4.425-3.689-7.568-4.812
	s-6.817-1.685-11.021-1.685c-4.316,0-8.343,1.088-12.078,3.265c-0.36,0.443-0.54,1.108-0.54,1.995
	C147.628,10.339,147.808,11.725,148.168,13.25L148.168,13.25z M160.752,24.894c0-4.6-0.169-8.7-0.506-12.3
	c1.114-0.56,2.366-0.84,3.759-0.84c3.373,0,6.264,1.48,8.673,4.44c2.41,2.96,3.614,6.3,3.614,10.02c0,3.64-1.215,6.61-3.644,8.91
	c-2.43,2.3-5.311,3.45-8.644,3.45c-1.353,0-2.605-0.2-3.759-0.6C160.583,34.734,160.752,30.375,160.752,24.894L160.752,24.894z"/>
<path fill="#FFFFFF" d="M187.213,37.62c0.361,1.458,0.973,2.887,1.835,4.285c0.863,1.399,2.157,2.513,3.883,3.343
	s3.793,1.246,6.202,1.246c4.507,0,8.167-1.448,10.979-4.347c2.813-2.898,4.219-7.125,4.219-12.682c0-1.953-0.19-3.736-0.569-5.351
	c-0.378-1.614-0.997-3.109-1.855-4.485c-0.859-1.375-2.076-2.452-3.653-3.229c-1.577-0.777-3.442-1.166-5.597-1.166
	c-4.728,0-8.574,1.719-11.539,5.157c-2.965,3.438-4.448,7.621-4.448,12.548C186.671,34.601,186.852,36.161,187.213,37.62z
	 M197.431,26.431c1.414-1.864,3.115-2.797,5.106-2.797c1.632,0,2.986,0.658,4.062,1.974c1.074,1.315,1.612,2.856,1.612,4.623
	c0,1.179-0.2,2.445-0.597,3.8c-0.398,1.354-1.135,2.63-2.209,3.828c-1.076,1.198-2.35,1.796-3.822,1.796
	c-1.712,0-3.186-0.706-4.419-2.12c-1.235-1.414-1.852-3.102-1.852-5.065C195.312,30.309,196.018,28.297,197.431,26.431z"/>
</svg>
